<svg width="80" height="80" viewBox="0 0 80 80" fill="none" xmlns="http://www.w3.org/2000/svg">
<path d="M0 70.5185C0 51.3707 0 32.2229 0 13.0751C0.0626141 12.8702 0.166971 12.6653 0.208714 12.4604C1.461 6.8595 5.1761 3.672 10.4566 3.672C17.4067 3.672 24.3569 3.672 31.3071 3.672C31.5575 3.672 31.7871 3.69476 32.1837 3.7403C31.8706 3.96798 31.7036 4.10459 31.5367 4.21843C28.886 5.94879 26.1727 7.61084 23.5847 9.45504C22.0193 10.5707 20.4331 11.0488 18.5547 10.9577C15.7579 10.8211 12.9403 10.9122 10.1226 10.935C8.51552 10.935 7.30498 11.8912 6.84581 13.4394C6.40751 14.8966 6.82494 16.6269 8.03548 17.4238C8.72424 17.8792 9.64258 18.1524 10.4357 18.1524C28.9277 18.1979 47.3989 18.1751 65.891 18.1751C66.2458 18.1751 66.6214 18.1751 66.9763 18.1979C70.1278 18.3345 72.9663 21.0667 73.2168 24.4591C73.4046 27.1457 73.2585 29.8551 73.2585 32.5417C73.2585 32.5872 73.1959 32.6328 73.1333 32.7011C70.6288 32.7011 68.0616 32.6783 65.5153 32.7011C64.6595 32.7011 63.8038 32.7466 62.9481 32.8604C55.2465 33.9761 49.5904 41.4895 50.0078 50.0274C50.4253 58.406 56.8328 65.1909 64.5552 65.3958C67.1641 65.4641 69.7522 65.4185 72.3611 65.4185C72.6324 65.4185 72.9246 65.4185 73.3003 65.4185C73.3003 66.8757 73.3212 68.219 73.3003 69.5851C73.2794 71.065 73.4046 72.5677 73.1751 74.002C72.6324 77.5994 69.8774 79.9672 66.3919 79.99C61.5288 80.0128 56.6449 79.99 51.7819 79.99C37.965 79.99 24.1273 80.0128 10.3105 79.99C5.9066 79.99 2.71328 77.736 0.834855 73.3873C0.438299 72.4993 0.271328 71.4748 0 70.5185Z" fill="#9EA3B5"/>
<path d="M80.0001 49.1165C80.0001 51.7348 80.0001 54.3304 80.0001 56.9487C80.0001 58.9067 79.04 59.9768 77.2659 59.9996C73.1543 59.9996 69.0426 60.0451 64.9309 59.9996C59.7131 59.9313 55.5179 55.6964 55.0379 50.0955C54.5579 44.6085 58.0434 39.554 63.0943 38.4384C63.8039 38.279 64.5344 38.2334 65.2649 38.2107C69.1887 38.1879 73.1334 38.1879 77.0572 38.2107C79.0191 38.2107 80.0001 39.2808 80.0001 41.3982C80.0001 43.9482 80.0001 46.521 80.0001 49.1165ZM68.3121 49.0482C68.2912 47.0446 66.8094 45.4281 64.9727 45.4509C63.136 45.4736 61.675 47.0902 61.6959 49.1165C61.7167 51.1201 63.2195 52.7594 65.0353 52.7138C66.872 52.7138 68.3121 51.0745 68.3121 49.0482Z" fill="#9EA3B5"/>
<path d="M25.7135 14.3956C25.9222 14.2362 26.1309 14.0768 26.3396 13.9402C33.102 9.52323 39.8434 5.08349 46.6058 0.666521C48.4007 -0.494642 49.6738 -0.153123 50.7174 1.80492C52.8463 5.7893 54.9961 9.79645 57.1249 13.7808C57.2502 14.0085 57.3336 14.2134 57.4797 14.5322C46.8771 14.5322 36.3162 14.5322 25.7761 14.5322C25.7761 14.4866 25.7344 14.4411 25.7135 14.3956Z" fill="#9EA3B5"/>
<path d="M63.1986 14.3045C61.3201 10.7755 59.4835 7.33755 57.6468 3.87683C61.8211 4.42326 63.9917 8.33934 63.1986 14.3045Z" fill="#9EA3B5"/>
</svg>
