<svg width="80" height="80" viewBox="0 0 80 80" fill="none" xmlns="http://www.w3.org/2000/svg">
<path d="M41.5375 79.6232C40.212 79.6232 39.2587 78.3588 39.6354 77.0879C40.209 75.1525 40.785 73.215 41.2274 71.2473C41.5876 69.6677 42.2656 68.8571 43.897 68.4414C46.5878 67.7348 49.215 66.7579 51.8846 65.9474C52.266 65.8227 52.7744 65.8434 53.1558 65.9889C57.3721 67.6516 61.5883 67.6516 65.8257 66.0097C66.2283 65.8642 66.758 65.8434 67.1605 65.9681C70.2539 66.9242 73.326 67.9426 76.4193 68.9195C76.9702 69.0857 77.2033 69.3559 77.3516 69.9171C77.9937 72.3291 78.6473 74.7297 79.304 77.1273C79.6534 78.4029 78.6914 79.6608 77.3688 79.6573C65.4043 79.6255 53.4699 79.6233 41.5375 79.6232Z" fill="#9EA3B5"/>
<path d="M71 49.5C71 51 70.9743 52.6042 70.5929 54.1214C69.2581 59.4629 64.2367 62.8715 58.4526 62.5181C53.2406 62.2064 48.6854 58.008 48.0709 52.7913C47.7531 50.0478 47.6048 47.242 48.3464 44.5193C49.8295 39.1155 55.0627 35.6653 60.7409 36.2473C66.2495 36.8292 70.5929 41.277 70.9319 46.7639C70.9954 47.6369 71 49 71 49V49.5Z" fill="#9EA3B5"/>
<path d="M41.5453 5.41981C41.5453 6.52438 40.6498 7.41986 39.5453 7.41986C32.7486 7.41986 25.9767 7.41986 19.1801 7.41986C18.0755 7.41986 17.1801 6.52441 17.1801 5.41984C17.1801 4.27784 17.1801 3.14201 17.1801 2.00002C17.1801 0.895451 18.0755 0 19.1801 0C25.9619 0 32.7338 0 39.5453 0C40.6498 0 41.5453 0.89541 41.5453 1.99998C41.5453 3.12982 41.5453 4.26772 41.5453 5.41981Z" fill="#9EA3B5"/>
<path d="M33.6251 77.8127C33.2612 79.1063 32.0812 80 30.7374 80C20.6627 80 10.5727 80 0.499986 80C0.223844 80 0 79.7761 0 79.5V79.5C0 55.5361 0.0423743 32.4639 0.0423743 8.5V8.5C0.0423743 7.61637 0.714551 6.94449 1.59818 6.94449C3.97324 6.94449 6.32212 6.94449 8.67552 6.94449C10.1912 6.94449 11.4307 8.1966 11.4834 9.71135V9.71135C11.5362 11.2261 12.7758 12.4314 14.2915 12.4314C23.7906 12.4314 33.1785 12.4314 42.6925 12.4314C44.2134 12.4314 45.4465 11.1829 45.4465 9.66199V9.66199C45.4465 8.14107 46.6795 6.92371 48.2004 6.92371C50.0667 6.92371 51.9212 6.92371 53.7816 6.92371C55.4385 6.92371 56.7816 8.26687 56.7816 9.92373C56.7816 17.0783 56.7816 24.198 56.7816 31.3614C56.7816 31.6914 56.5588 32.0157 56.2307 32.0515V32.0515C50.3407 33.0075 46.1245 36.1459 43.6244 41.4458C43.3701 41.9654 43.0735 42.0901 42.5438 42.0901C38.6242 42.0693 34.7258 42.0901 30.8061 42.0901V42.0901C30.303 42.0901 29.8951 42.498 29.8951 43.0011C29.8951 43.4995 29.8951 43.9909 29.8951 44.4802C29.8951 45.8003 30.9652 46.8704 32.2853 46.8704C34.5934 46.8704 36.8893 46.8704 39.1954 46.8704C40.8642 46.8704 42.1903 48.232 42.188 49.9008C42.1861 51.3446 42.2356 52.7805 42.4577 54.1973C42.8175 56.4923 41.2403 59.1329 38.9172 59.1329C36.6691 59.1329 34.4493 59.1329 32.2333 59.1329C30.9419 59.1329 29.8951 60.1797 29.8951 61.4711C29.8951 61.6893 29.8951 61.9075 29.8951 62.126C29.8951 63.0557 30.6501 63.8093 31.5797 63.8093C34.1913 63.8093 35.8891 63.8093 38.398 63.8093C38.8154 63.8093 39.2952 64.2048 39 64.5V64.5C38.7672 64.7328 38.0618 65.4382 37.507 65.993C37.1736 66.3264 36.9252 66.7341 36.7681 67.1787C36.4595 68.052 36.1223 68.9243 35.8699 69.8158C35.1216 72.4909 34.3734 75.1532 33.6251 77.8127ZM32.1813 25.1096C30.9187 25.1096 29.8951 26.1488 29.8951 27.4115V27.4115C29.8951 28.6741 30.9187 29.6821 32.1814 29.6821C36.4628 29.6821 40.7143 29.6821 44.9612 29.6821C46.2238 29.6821 47.2474 28.6351 47.2474 27.3725V27.3725C47.2474 26.1098 46.2238 25.1096 44.9611 25.1096C40.6812 25.1096 36.4382 25.1096 32.1813 25.1096ZM21.4337 38.9882C20.5225 38.0901 19.0153 38.048 18.1039 38.9459C17.0706 39.964 16.0214 41.0002 14.9372 42.0672C14.2975 42.6966 13.2178 42.6306 12.5944 41.985V41.985C11.9679 41.3364 10.9739 41.3637 10.3301 41.9952C10.1788 42.1436 10.0283 42.2913 9.87865 42.4381C8.9914 43.3085 8.99165 44.7373 9.88049 45.606C10.5228 46.2338 11.1682 46.8643 11.8118 47.4951C12.9837 48.6438 14.8612 48.6489 16.0341 47.5012C17.8128 45.7607 19.603 44.0127 21.3797 42.2735C22.3127 41.3602 22.3636 39.9047 21.4337 38.9882V38.9882ZM21.4707 55.9634C20.5696 55.0753 19.0459 55.0059 18.1476 55.8967C17.1175 56.9182 16.0809 57.946 15.0254 58.9924C14.3704 59.6417 13.2857 59.6012 12.647 58.9358V58.9358C12.0159 58.2783 11.0001 58.2977 10.3494 58.936C10.1982 59.0843 10.0477 59.232 9.89797 59.3788C8.9784 60.2809 8.98261 61.7633 9.90256 62.665C10.5226 63.2727 11.1421 63.8824 11.7583 64.4891C12.9229 65.6358 14.7905 65.6365 15.9572 64.4919C17.7573 62.7262 19.5726 60.9454 21.3859 59.1666C22.3035 58.2664 22.3862 56.8657 21.4707 55.9634V55.9634ZM11.9109 30.5877C13.0722 31.729 14.9321 31.7238 16.0942 30.5834C18.3919 28.3286 20.6962 26.0644 22.9881 23.8002V23.8002C23.0669 23.7229 23.056 23.5967 22.9771 23.5194C22.492 23.0442 22.0104 22.5759 21.5272 22.1043C20.5379 21.1389 18.9533 21.1371 17.9691 22.1076C16.9984 23.0647 16.0004 24.0451 14.9563 25.0697C14.3016 25.7122 13.2024 25.625 12.6027 24.9309V24.9309C12.0077 24.2422 10.9996 24.2442 10.3446 24.8761C10.1793 25.0356 10.0161 25.1931 9.85472 25.3491C8.9531 26.2207 8.94851 27.6613 9.83962 28.5436C10.524 29.2212 11.2134 29.9023 11.9109 30.5877Z" fill="#9EA3B5"/>
</svg>
