<svg width="36" height="40" viewBox="0 0 36 40" fill="none" xmlns="http://www.w3.org/2000/svg">
<path d="M16.8947 39.9694C15.9239 39.8161 14.9428 39.7037 13.972 39.4993C11.6828 39.019 9.58785 38.0481 7.67683 36.7094C5.2344 34.9823 3.31316 32.7954 1.95399 30.1179C0.288236 26.8477 -0.304482 23.3833 0.14517 19.7555C0.574383 16.2298 1.954 13.1027 4.26357 10.4048C4.99937 9.54635 5.82713 8.76968 6.68555 8.03388C7.48266 7.33897 8.44329 7.21633 9.42435 7.64555C10.3747 8.05432 10.9164 8.80033 11.0083 9.83249C11.0799 10.6194 10.8244 11.3245 10.2726 11.8968C9.56742 12.6224 8.78053 13.2764 8.14693 14.0633C5.81692 16.9656 4.91761 20.2869 5.4899 23.9659C6.30744 29.1982 10.2726 33.3574 15.4333 34.4407C20.451 35.4831 25.7446 33.337 28.5345 29.0244C31.0792 25.09 31.3857 20.9409 29.4849 16.659C28.8207 15.167 27.8498 13.8896 26.6542 12.7757C26.2352 12.3873 25.7855 12.0194 25.4585 11.5596C24.6716 10.4456 24.8658 9.00472 25.8366 8.12586C26.8279 7.22655 28.2791 7.18568 29.3316 8.05432C30.8543 9.30108 32.1624 10.742 33.2048 12.4078C35.4632 16.005 36.3523 19.9394 35.8618 24.1498C35.0238 31.3953 29.8017 37.435 22.7299 39.3562C21.6569 39.6423 20.5328 39.7445 19.4393 39.9387C19.3269 39.9591 19.2145 39.9796 19.1021 40C18.3561 39.9694 17.6203 39.9694 16.8947 39.9694Z" fill="white"/>
<path d="M15.3312 8.76966C15.3312 6.75645 15.3209 4.73302 15.3312 2.71981C15.3414 0.962079 16.8334 -0.274463 18.5094 0.0525563C19.7868 0.30804 20.635 1.39129 20.635 2.80156C20.6452 6.00022 20.635 9.19888 20.635 12.4078C20.635 13.2151 20.6554 14.0224 20.6248 14.8297C20.5941 15.9743 20.0627 16.8327 19.0101 17.2926C18.0086 17.7218 17.0378 17.5583 16.21 16.8327C15.5866 16.2911 15.3209 15.5655 15.3209 14.748C15.3311 12.745 15.3312 10.7624 15.3312 8.76966Z" fill="white"/>
</svg>
