<svg width="40" height="36" viewBox="0 0 40 36" fill="none" xmlns="http://www.w3.org/2000/svg">
<path fill-rule="evenodd" clip-rule="evenodd" d="M40 25.9828V1.96824C39.9358 1.83993 39.879 1.70796 39.8224 1.57651C39.7136 1.32388 39.6056 1.07314 39.4481 0.853944C39.0419 0.312419 38.4483 0.0520698 37.761 0.010414C37.6569 0.00347134 37.5527 0.00578552 37.4486 0.00809972C37.3965 0.00925684 37.3444 0.010414 37.2924 0.010414C34.0131 0.010414 30.7347 0.0121146 27.4566 0.013815C19.2628 0.0180654 11.0712 0.0223146 2.87425 0C1.44754 0 0.406144 0.520698 0.010414 1.96824C0.010414 9.96616 0.010414 17.9745 0 25.9828C0.177037 26.5348 0.406144 27.0555 0.885186 27.4199C1.38506 27.8053 1.937 27.9406 2.56183 27.9406H26.9721C27.9875 27.9406 29.0028 27.9378 30.0181 27.935C32.3873 27.9285 34.7565 27.9219 37.1257 27.9511C38.4275 27.9615 39.5418 27.5657 40 25.9828ZM37 23.4507V4.54917C36.9455 4.44818 36.8972 4.34431 36.849 4.24085C36.7566 4.042 36.6648 3.84465 36.5309 3.67213C36.1856 3.2459 35.6811 3.04098 35.0968 3.0082C35.0083 3.00273 34.9198 3.00455 34.8313 3.00638C34.787 3.00729 34.7428 3.0082 34.6985 3.0082C31.9111 3.0082 29.1245 3.00954 26.3381 3.01087C19.3733 3.01422 12.4105 3.01756 5.44311 3C4.23041 3 3.34522 3.40983 3.00885 4.54917C3.00885 10.8442 3.00885 17.1474 3 23.4507C3.15048 23.8851 3.34522 24.2949 3.75241 24.5818C4.1773 24.8851 4.64645 24.9916 5.17756 24.9916H25.9263C26.7894 24.9916 27.6524 24.9894 28.5154 24.9872C30.5293 24.9821 32.5431 24.9769 34.5569 24.9998C35.6634 25.008 36.6105 24.6966 37 23.4507Z" fill="white"/>
<path d="M13.8297 32.9602C13.8297 31.8042 13.8297 30.6899 13.8297 29.5548C17.9537 29.5548 22.0359 29.5548 26.1599 29.5548C26.1599 30.6795 26.1599 31.7938 26.1599 32.9602C26.3265 32.9602 26.4619 32.9602 26.5973 32.9602C28.5342 32.9602 30.4712 32.9602 32.4187 32.9602C33.3143 32.9602 33.8974 33.7516 33.585 34.5431C33.408 34.9909 33.0539 35.2408 32.5749 35.2929C32.4707 35.3033 32.3666 35.2929 32.2624 35.2929C24.0875 35.2929 15.9125 35.2929 7.748 35.2929C7.59179 35.2929 7.43558 35.3033 7.27937 35.2721C6.68577 35.1471 6.27963 34.6056 6.3317 34.0224C6.39418 33.4184 6.88364 32.9602 7.5293 32.9602C9.45588 32.9498 11.3825 32.9602 13.309 32.9602C13.4653 32.9602 13.6215 32.9602 13.8297 32.9602Z" fill="white"/>
</svg>
