<svg width="40" height="36" viewBox="0 0 40 36" fill="none" xmlns="http://www.w3.org/2000/svg">
<path d="M40 1.96824C40 9.97657 40 17.9745 40 25.9828C39.5418 27.5657 38.4275 27.9615 37.1257 27.9511C33.7412 27.9094 30.3567 27.9406 26.9721 27.9406C18.8388 27.9406 10.7055 27.9406 2.56183 27.9406C1.937 27.9406 1.38506 27.8053 0.885186 27.4199C0.406144 27.0555 0.177037 26.5348 0 25.9828C0.010414 17.9745 0.010414 9.96615 0.010414 1.96824C0.406144 0.520698 1.44754 0 2.87425 0C14.3504 0.0312419 25.8162 0.010414 37.2924 0.010414C37.4486 0.010414 37.6048 0 37.761 0.010414C38.4483 0.0520698 39.0419 0.312419 39.4481 0.853944C39.6876 1.18719 39.8125 1.59333 40 1.96824Z" fill="white"/>
<path d="M13.8297 32.9602C13.8297 31.8042 13.8297 30.6899 13.8297 29.5548C17.9537 29.5548 22.0359 29.5548 26.1599 29.5548C26.1599 30.6795 26.1599 31.7938 26.1599 32.9602C26.3265 32.9602 26.4619 32.9602 26.5973 32.9602C28.5342 32.9602 30.4712 32.9602 32.4187 32.9602C33.3143 32.9602 33.8974 33.7516 33.585 34.5431C33.408 34.9909 33.0539 35.2408 32.5749 35.2929C32.4707 35.3033 32.3666 35.2929 32.2624 35.2929C24.0875 35.2929 15.9125 35.2929 7.748 35.2929C7.59179 35.2929 7.43558 35.3033 7.27937 35.2721C6.68577 35.1471 6.27963 34.6056 6.3317 34.0224C6.39418 33.4184 6.88364 32.9602 7.5293 32.9602C9.45588 32.9498 11.3825 32.9602 13.309 32.9602C13.4653 32.9602 13.6215 32.9602 13.8297 32.9602Z" fill="white"/>
</svg>
