<svg width="40" height="40" viewBox="0 0 40 40" fill="none" xmlns="http://www.w3.org/2000/svg">
<g clip-path="url(#clip0_11_14)">
<path d="M0 1.10006C0 1.00006 0.1 0.900064 0.1 0.800064C0.6 6.44326e-05 1.6 -0.299936 2.4 0.400064C2.5 0.500064 2.7 0.700064 2.8 0.800064C15 13.0001 27.2 25.2001 39.4 37.4001C40 38.0001 40.2 38.7001 39.8 39.3001C39.6 39.6001 39.2 39.8001 38.9 40.0001C38.7 40.0001 38.4 40.0001 38.2 40.0001C37.8 39.7001 37.4 39.4001 37.1 39.1001C35.3 37.3001 33.5 35.6001 31.8 33.8001C31.7 33.7001 31.6 33.6001 31.5 33.5001C31.5 35.1001 31.5 36.7001 31.5 38.2001C31.5 39.1001 31.2 39.7001 30.4 40.0001C30.2 40.0001 30 40.0001 29.8 40.0001C29.5 39.8001 29.2 39.7001 28.9 39.4001C24.5 35.9001 20 32.3001 15.6 28.8001C15.4 28.7001 15.2 28.6001 14.9 28.6001C12.9 28.6001 10.8 28.6001 8.8 28.6001C7 28.6001 5.8 27.4001 5.8 25.6001C5.8 21.9001 5.8 18.2001 5.8 14.6001C5.8 12.8001 7 11.6001 8.8 11.5001C9 11.5001 9.2 11.5001 9.4 11.5001C9.4 11.5001 9.4 11.4001 9.5 11.4001C9.2 11.2001 9.1 11.1001 9 11.0001C6.2 8.30006 3.5 5.50006 0.7 2.70006C0.4 2.40006 0.2 2.10006 0 1.70006C0 1.50006 0 1.30006 0 1.10006Z" fill="white"/>
<path d="M31.4 25.3C26.4 20.3 21.5 15.4 16.5 10.4C17.2 9.80001 17.9 9.30001 18.6 8.70001C22.1 5.90001 25.5 3.20001 29 0.400011C29.5 1.0848e-05 30 -0.199989 30.6 0.100011C31.2 0.400011 31.4 0.900011 31.4 1.50001C31.4 9.30001 31.4 17.1 31.4 24.8C31.4 25 31.4 25.1 31.4 25.3Z" fill="white"/>
</g>
<defs>
<clipPath id="clip0_11_14">
<rect width="40" height="40" fill="white"/>
</clipPath>
</defs>
</svg>
