<svg width="40" height="41" viewBox="0 0 40 41" fill="none" xmlns="http://www.w3.org/2000/svg">
<path d="M21.165 0.0114223C21.8846 0.114221 22.6042 0.182753 23.3238 0.308395C27.1159 0.970874 30.4512 2.59281 33.3409 5.13992C33.4552 5.24272 33.5694 5.34552 33.695 5.44832C33.7179 5.45974 33.7407 5.47116 33.8664 5.58538C33.9349 5.45974 33.992 5.31125 34.0948 5.21988C35.0771 4.23758 36.0708 3.25528 37.0531 2.27299C37.5899 1.73615 38.2067 1.53055 38.9377 1.80468C39.6231 2.06739 40 2.68418 40 3.50657C40 7.27585 40 11.0565 40 14.8258C40 15.968 39.3261 16.6648 38.1953 16.6648C34.4032 16.6762 30.6225 16.6648 26.8304 16.6648C25.9851 16.6648 25.3798 16.2878 25.1285 15.6139C24.8429 14.8715 25.0828 14.2547 25.631 13.7065C26.7847 12.5757 27.9155 11.4335 29.1376 10.2113C28.3952 9.66305 27.7099 9.08053 26.956 8.61222C21.759 5.39121 14.7116 6.19075 10.3369 10.8281C9.38891 11.8332 8.6122 12.9412 8.07537 14.2205C7.81266 14.8372 7.53853 15.454 7.27582 16.0822C7.11591 16.4706 6.8418 16.6762 6.40776 16.6648C4.74014 16.6533 3.07252 16.6648 1.4049 16.6533C0.708156 16.6533 0.354064 16.1394 0.525395 15.4655C1.18787 12.8384 2.25012 10.4055 3.84921 8.20103C5.65389 5.72245 7.90405 3.74643 10.5996 2.28441C12.4386 1.27927 14.4146 0.628213 16.482 0.296974C17.1331 0.194175 17.7955 0.148487 18.458 0.0685325C18.6408 0.0456885 18.8121 0.0228441 18.9949 0C19.7144 0.011422 20.4455 0.0114223 21.165 0.0114223Z" fill="white"/>
<path d="M0 24.6944C0.342661 23.6893 1.05083 23.3238 2.09024 23.3352C5.7453 23.3695 9.40034 23.3466 13.0668 23.3466C13.5008 23.3466 13.9235 23.3809 14.289 23.655C15.1571 24.2947 15.2484 25.414 14.4717 26.2022C13.4209 27.2758 12.3358 28.3381 11.2736 29.4118C11.1708 29.5145 11.0566 29.5945 10.8624 29.7544C11.6048 30.3027 12.2559 30.8738 12.9869 31.3078C17.9669 34.3461 23.8378 33.9806 28.4066 30.3598C29.96 29.1262 31.1708 27.6071 31.9475 25.7681C32.2102 25.1513 32.4843 24.5231 32.747 23.9063C32.9069 23.5294 33.1811 23.3466 33.5923 23.3466C35.1913 23.3581 36.7904 23.3466 38.3895 23.3466C39.0863 23.3466 39.4403 23.8149 39.2804 24.4774C38.5037 27.5614 37.213 30.3826 35.1685 32.8384C32.5414 35.9794 29.3204 38.2181 25.3455 39.2804C20.2627 40.6282 15.3398 40.1371 10.6568 37.6927C9.12622 36.8932 7.73274 35.8995 6.46489 34.723C6.38494 34.6545 6.30498 34.5859 6.20218 34.4946C6.09938 34.5974 5.99659 34.6887 5.89379 34.7915C4.92291 35.7624 3.96345 36.7219 2.99257 37.6927C1.9189 38.755 0.628213 38.4923 0.0571102 37.0874C0.0456882 37.0645 0.0228441 37.0531 0 37.0417C0 32.9297 0 28.8178 0 24.6944Z" fill="white"/>
</svg>
