<svg width="40" height="36" viewBox="0 0 40 36" fill="none" xmlns="http://www.w3.org/2000/svg">
<path d="M16.1586 22.0037C15.7266 21.9119 15.3947 21.749 15.2946 21.4318C15.2695 21.3566 15.2632 21.2773 15.2632 21.198C15.2632 16.3969 15.2632 11.5916 15.2632 6.79053C15.2632 6.36887 15.6515 6.05993 16.2463 6.00566C16.7848 5.95974 17.3045 6.1977 17.4422 6.56092C17.4735 6.64024 17.4798 6.72373 17.4798 6.80723C17.4798 11.6 17.4798 16.3927 17.4798 21.1854C17.4798 21.628 17.2732 21.8117 16.5844 22.0037C16.4404 22.0037 16.3026 22.0037 16.1586 22.0037Z" fill="white"/>
<path d="M32 14.6267C31.8622 14.9064 31.6306 15.1235 31.1672 15.1986C30.4785 15.3114 29.8273 15.015 29.7897 14.5432C29.7647 14.1967 29.7709 13.846 29.7835 13.4995C29.796 13.1321 30.1967 12.8399 30.7164 12.7856C31.2486 12.7355 31.7433 12.9359 31.9374 13.2782C31.9562 13.3116 31.9749 13.345 32 13.3784C32 13.7917 32 14.2092 32 14.6267Z" fill="white"/>
<path d="M18.8886 13.9963C18.8886 12.5017 18.8886 11.0071 18.8886 9.51253C18.8886 9.0533 19.3457 8.72349 19.9718 8.71514C20.5917 8.70679 21.0738 9.0032 21.1177 9.42486C21.1239 9.46661 21.1177 9.50836 21.1177 9.55011C21.1177 12.5143 21.1177 15.4784 21.1177 18.4384C21.1177 18.526 21.1052 18.6137 21.0801 18.7014C20.9799 19.0563 20.5479 19.2859 19.9969 19.2859C19.4459 19.2859 19.0138 19.0563 18.9199 18.6972C18.8949 18.6054 18.8886 18.5093 18.8886 18.4175C18.8886 16.9438 18.8886 15.4701 18.8886 13.9963Z" fill="white"/>
<path d="M26.1456 13.9922C26.1456 12.4934 26.1456 10.9947 26.1456 9.4917C26.1456 9.01995 26.6528 8.69431 27.329 8.71518C27.8174 8.72771 28.2619 8.98237 28.3433 9.30384C28.3621 9.38733 28.3746 9.47083 28.3746 9.55433C28.3746 12.5185 28.3746 15.4784 28.3746 18.4426C28.3746 18.8643 28.1242 19.1356 27.6421 19.2483C26.8782 19.4237 26.1581 19.0772 26.1518 18.5219C26.1456 18.1086 26.1518 17.6995 26.1518 17.2862C26.1456 16.1882 26.1456 15.0902 26.1456 13.9922Z" fill="white"/>
<path d="M13.8607 14.0046C13.8607 15.0442 13.8607 16.0879 13.8607 17.1274C13.8607 17.57 13.5101 17.858 12.909 17.9248C12.3141 17.9916 11.7569 17.7203 11.6629 17.3236C11.6442 17.2485 11.6379 17.1692 11.6379 17.0899C11.6379 15.0233 11.6379 12.9567 11.6379 10.886C11.6379 10.4685 11.951 10.1763 12.4769 10.0844C13.2033 9.96338 13.8607 10.3182 13.867 10.8401C13.8607 11.9005 13.8607 12.9526 13.8607 14.0046Z" fill="white"/>
<path d="M24.743 13.9964C24.743 14.6101 24.7493 15.2238 24.743 15.8375C24.7368 16.3092 24.192 16.6224 23.4907 16.5681C22.946 16.5305 22.5515 16.2508 22.5327 15.8751C22.5202 15.5411 22.5265 15.2071 22.5265 14.8773C22.5265 13.9671 22.5202 13.057 22.5327 12.1427C22.5327 11.8254 22.8395 11.5583 23.2841 11.4581C23.7161 11.362 24.192 11.4497 24.4926 11.6877C24.6741 11.8338 24.7493 12.005 24.7493 12.1928C24.7367 12.7982 24.743 13.3952 24.743 13.9964Z" fill="white"/>
<path d="M10.2165 14.0005C10.2165 14.1758 10.2291 14.3553 10.2165 14.5307C10.179 14.9356 9.72815 15.2154 9.13332 15.2195C8.5197 15.2237 8.04383 14.944 8.01878 14.5349C7.99374 14.1758 7.99374 13.8168 8.01878 13.4577C8.04383 13.0737 8.55101 12.7772 9.13332 12.7814C9.70937 12.7814 10.1852 13.0737 10.2228 13.4577C10.2291 13.6373 10.2165 13.821 10.2165 14.0005Z" fill="white"/>
<path fill-rule="evenodd" clip-rule="evenodd" d="M40 25.9828V1.96824C39.9358 1.83993 39.879 1.70796 39.8224 1.57651C39.7136 1.32388 39.6056 1.07314 39.4481 0.853944C39.0419 0.312419 38.4483 0.0520698 37.761 0.010414C37.6569 0.00347134 37.5527 0.00578552 37.4486 0.00809972C37.3965 0.00925684 37.3444 0.010414 37.2924 0.010414C34.0131 0.010414 30.7347 0.0121146 27.4566 0.013815C19.2628 0.0180654 11.0712 0.0223146 2.87425 0C1.44754 0 0.406144 0.520698 0.010414 1.96824C0.010414 9.96616 0.010414 17.9745 0 25.9828C0.177037 26.5348 0.406144 27.0555 0.885186 27.4199C1.38506 27.8053 1.937 27.9406 2.56183 27.9406H26.9721C27.9875 27.9406 29.0028 27.9378 30.0181 27.935C32.3873 27.9285 34.7565 27.9219 37.1257 27.9511C38.4275 27.9615 39.5418 27.5657 40 25.9828ZM37 23.4507V4.54917C36.9455 4.44818 36.8972 4.34431 36.849 4.24085C36.7566 4.042 36.6648 3.84465 36.5309 3.67213C36.1856 3.2459 35.6811 3.04098 35.0968 3.0082C35.0083 3.00273 34.9198 3.00455 34.8313 3.00638C34.787 3.00729 34.7428 3.0082 34.6985 3.0082C31.9111 3.0082 29.1245 3.00954 26.3381 3.01087C19.3733 3.01422 12.4105 3.01756 5.44311 3C4.23041 3 3.34522 3.40983 3.00885 4.54917C3.00885 10.8442 3.00885 17.1474 3 23.4507C3.15048 23.8851 3.34522 24.2949 3.75241 24.5818C4.1773 24.8851 4.64645 24.9916 5.17756 24.9916H25.9263C26.7894 24.9916 27.6524 24.9894 28.5154 24.9872C30.5293 24.9821 32.5431 24.9769 34.5569 24.9998C35.6634 25.008 36.6105 24.6966 37 23.4507Z" fill="white"/>
<path d="M13.8297 32.9602C13.8297 31.8042 13.8297 30.6899 13.8297 29.5548C17.9537 29.5548 22.0359 29.5548 26.1599 29.5548C26.1599 30.6795 26.1599 31.7938 26.1599 32.9602C26.3265 32.9602 26.4619 32.9602 26.5973 32.9602C28.5342 32.9602 30.4712 32.9602 32.4187 32.9602C33.3143 32.9602 33.8974 33.7516 33.585 34.5431C33.408 34.9909 33.0539 35.2408 32.5749 35.2929C32.4707 35.3033 32.3666 35.2929 32.2624 35.2929C24.0875 35.2929 15.9125 35.2929 7.748 35.2929C7.59179 35.2929 7.43558 35.3033 7.27937 35.2721C6.68577 35.1471 6.27963 34.6056 6.3317 34.0224C6.39418 33.4184 6.88364 32.9602 7.5293 32.9602C9.45588 32.9498 11.3825 32.9602 13.309 32.9602C13.4653 32.9602 13.6215 32.9602 13.8297 32.9602Z" fill="white"/>
</svg>
