<svg width="40" height="40" viewBox="0 0 40 40" fill="none" xmlns="http://www.w3.org/2000/svg">
<path d="M40 22.863C39.8 23.163 39.7 23.463 39.5 23.763C39.1 24.263 38.5 24.563 37.9 24.563C36 24.563 34 24.563 32.1 24.563C29.5 24.563 27.4 26.163 26.9 28.663C26.7 29.363 26.8 30.163 26.7 30.963C26.3 34.863 23 38.363 19 38.963C13.6 39.763 9 35.763 8.4 30.763C8.2 29.463 8.3 28.063 8.3 26.663C8.3 26.263 8.3 25.863 8.3 25.463C8.3 25.163 8.2 25.063 8 25.063C4.5 24.163 2.1 22.063 0.8 18.763C0.2 17.563 0 16.363 0 15.163C0 13.463 0 11.663 0 9.96298C0 8.96298 0.5 8.46298 1.5 8.46298C2.3 8.46298 3.1 8.46298 3.9 8.46298C3.9 8.26298 3.9 8.16298 3.9 8.06298C3.9 6.06298 3.9 3.96298 3.9 1.96298C3.9 0.662977 5.1 -0.137023 6.3 0.0629768C7 0.162977 7.6 0.862977 7.7 1.66298C7.7 1.86298 7.7 2.06298 7.7 2.36298C7.7 4.26298 7.7 6.06298 7.7 7.96298C7.7 8.16298 7.7 8.26298 7.7 8.46298C9.4 8.46298 11.1 8.46298 12.8 8.46298C12.8 8.26298 12.8 8.16298 12.8 7.96298C12.8 5.96298 12.8 3.86298 12.8 1.86298C12.8 0.562977 14 -0.237023 15.2 0.0629768C16 0.262977 16.7 1.06298 16.7 1.96298C16.7 3.96298 16.7 5.96298 16.7 7.96298C16.7 8.16298 16.7 8.26298 16.7 8.46298C17.5 8.46298 18.2 8.46298 19 8.46298C20.1 8.46298 20.6 8.96298 20.6 10.063C20.6 11.763 20.6 13.363 20.6 15.063C20.6 19.763 17.4 23.863 12.8 24.963C12.7 24.963 12.5 25.063 12.4 25.063C12.4 26.863 12.2 28.763 12.4 30.563C12.7 33.063 14.9 34.863 17.5 34.863C20 34.863 22.1 33.063 22.5 30.563C22.6 29.763 22.6 28.963 22.7 28.163C23.3 24.063 26.8 20.663 31 20.463C33.3 20.363 35.6 20.363 37.9 20.363C39 20.363 39.6 21.063 39.9 22.063C40 22.263 40 22.563 40 22.863Z" fill="white"/>
</svg>
