<svg width="155" height="27" viewBox="0 0 155 27" fill="none" xmlns="http://www.w3.org/2000/svg">
<path d="M0.0195101 12.2369C0.0390211 12.1126 0.0585312 11.9813 0.0715385 11.8569C0.117064 11.4355 0.3577 11.166 0.747919 11.0969C1.22268 11.014 1.69095 10.938 2.16571 10.8413C2.24376 10.8275 2.35432 10.7307 2.36733 10.6547C2.64048 9.43871 3.08273 8.2987 3.70708 7.23468C3.7461 7.16559 3.72658 7.0205 3.68106 6.95141C3.42091 6.54377 3.14776 6.14994 2.88111 5.74921C2.60146 5.32775 2.59495 4.98229 2.93314 4.60229C3.4014 4.07028 3.89568 3.55209 4.39646 3.05463C4.72815 2.7299 5.05983 2.73681 5.43704 3.01317C5.81425 3.29645 6.19797 3.57973 6.56218 3.87682C6.68574 3.98046 6.77679 3.97355 6.90036 3.88373C7.8694 3.22736 8.90998 2.76444 10.0286 2.5088C10.1652 2.47426 10.2302 2.41208 10.2497 2.26007C10.3083 1.79716 10.3863 1.34115 10.4513 0.885146C10.5359 0.304774 10.783 0.069862 11.3489 0.0353161C11.4919 0.0284069 11.6415 0.00767934 11.7846 0.000770161C12.0838 -0.0130482 12.2789 0.159682 12.2789 0.470595C12.2854 1.65207 12.2854 2.83353 12.2789 4.01501C12.2789 4.31901 12.1228 4.47101 11.8106 4.49174C9.88553 4.64374 8.18158 5.3623 6.7963 6.7925C4.4745 9.18307 3.68106 12.1057 4.57856 15.3944C5.46306 18.6417 7.59625 20.6178 10.6985 21.3847C11.0757 21.4745 11.4724 21.4952 11.8561 21.5505C12.1228 21.5851 12.2789 21.7302 12.2789 22.0203C12.2854 23.2018 12.2854 24.3833 12.2789 25.5647C12.2789 25.8618 12.1033 26.0484 11.8366 26.0415C11.583 26.0346 11.3293 26.0138 11.0822 25.9724C10.757 25.9102 10.5424 25.696 10.4839 25.3437C10.3928 24.8324 10.3148 24.328 10.2432 23.8167C10.2172 23.644 10.1587 23.568 9.99609 23.5334C8.88397 23.2778 7.8499 22.8149 6.88736 22.1654C6.74428 22.0687 6.65322 22.0825 6.52315 22.1862C6.15895 22.4763 5.78824 22.7527 5.41753 23.0291C5.03382 23.3193 4.69563 23.3124 4.35744 22.9738C3.86316 22.4763 3.37539 21.972 2.91363 21.44C2.58194 21.06 2.58195 20.7145 2.8616 20.293C3.12175 19.8992 3.38189 19.5054 3.65505 19.1185C3.7461 18.9872 3.7591 18.8974 3.67456 18.7523C3.05671 17.7297 2.62097 16.6174 2.37383 15.429C2.34131 15.277 2.28278 15.201 2.12669 15.1802C1.67794 15.1181 1.22919 15.0282 0.780437 14.9453C0.299167 14.8555 0.0845481 14.593 0.0455263 14.0748C0.0390226 13.9642 0.0130073 13.8606 0 13.75C0.0195109 13.2319 0.0195101 12.7344 0.0195101 12.2369Z" fill="#15B2F5"/>
<path d="M24.9935 13.2663C24.9675 13.3354 24.935 13.4045 24.909 13.4736C24.7139 13.9918 24.3432 14.2958 23.8229 14.3373C23.2961 14.3856 22.8863 14.1438 22.6262 13.6602C22.5416 13.4943 22.4506 13.4529 22.288 13.4529C19.3484 13.4598 16.4087 13.4529 13.4626 13.4529C13.365 13.4529 13.2675 13.4529 13.1569 13.4529C13.1569 13.1489 13.1569 12.8656 13.1569 12.5478C13.2544 12.5478 13.352 12.5478 13.4496 12.5478C16.3892 12.5478 19.3288 12.5478 22.275 12.5547C22.4441 12.5547 22.5416 12.5132 22.6327 12.3405C22.8928 11.8569 23.3026 11.615 23.8294 11.6634C24.3497 11.7118 24.7139 12.0089 24.9155 12.534C24.9415 12.6031 24.9675 12.6721 25 12.7412C24.9935 12.9209 24.9935 13.0936 24.9935 13.2663Z" fill="white"/>
<path d="M12.2984 13.0246C12.2984 15.049 12.2984 17.0734 12.2984 19.0978C12.2984 19.6367 12.1553 19.761 11.6415 19.7058C8.91 19.4087 6.68575 17.2737 6.08741 14.4686C5.26145 10.6271 7.83689 6.76486 11.5245 6.32958C12.2073 6.24667 12.2919 6.32958 12.2919 7.05505C12.2984 9.04489 12.2984 11.0347 12.2984 13.0246Z" fill="#15B2F5"/>
<path d="M13.1503 11.2075C13.1503 10.9035 13.1503 10.6271 13.1503 10.3162C13.2479 10.3162 13.3389 10.3162 13.4365 10.3162C15.3941 10.3162 17.3517 10.3162 19.3093 10.3162C19.7841 10.3162 19.9141 10.178 19.9141 9.67367C19.9141 9.03803 19.9141 8.39547 19.9141 7.75983C19.9141 7.62164 19.8881 7.53183 19.7515 7.46273C19.2117 7.16564 18.9516 6.54381 19.0947 5.9358C19.2378 5.34161 19.745 4.92706 20.3304 4.92706C20.9092 4.92706 21.4035 5.33471 21.5531 5.92199C21.7091 6.5369 21.449 7.15873 20.8962 7.46273C20.7726 7.53183 20.7401 7.60783 20.7401 7.7391C20.7466 8.42311 20.7466 9.10021 20.7401 9.78422C20.7336 10.6479 20.2133 11.2075 19.4003 11.2075C17.3842 11.2075 15.3681 11.2075 13.352 11.2075C13.3064 11.2075 13.2414 11.2075 13.1503 11.2075Z" fill="white"/>
<path d="M13.1503 15.6984C13.1503 15.3944 13.1503 15.118 13.1503 14.8071C13.2414 14.8071 13.3259 14.8071 13.4105 14.8071C15.4006 14.8071 17.3907 14.8071 19.3808 14.8071C20.2458 14.8071 20.7531 15.353 20.7531 16.2719C20.7531 16.9282 20.7596 17.5846 20.7531 18.2341C20.7531 18.3861 20.7791 18.4759 20.9222 18.5519C21.462 18.849 21.7156 19.4777 21.5661 20.0788C21.423 20.673 20.9092 21.0807 20.3239 21.0807C19.7515 21.0738 19.2508 20.6661 19.1077 20.0788C18.9581 19.4708 19.2117 18.849 19.7515 18.5519C19.8816 18.4828 19.9206 18.4068 19.9206 18.2548C19.9141 17.5915 19.9206 16.9282 19.9141 16.265C19.9141 15.8435 19.7645 15.6915 19.3613 15.6915C17.3972 15.6915 15.4266 15.6915 13.4625 15.6915C13.3715 15.6984 13.2739 15.6984 13.1503 15.6984Z" fill="white"/>
<path d="M15.6803 22.5039C15.6803 21.585 15.6868 20.6661 15.6803 19.7402C15.6803 19.457 15.5113 19.298 15.2186 19.298C14.6268 19.2911 14.0349 19.298 13.4431 19.298C13.3585 19.298 13.2675 19.298 13.1634 19.298C13.1634 18.994 13.1634 18.7108 13.1634 18.3929C13.313 18.3929 13.4626 18.3929 13.6122 18.3929C14.1325 18.3929 14.6528 18.3929 15.1731 18.3929C15.999 18.3999 16.5258 18.9526 16.5323 19.8301C16.5388 20.6592 16.5388 21.4813 16.5323 22.3105C16.5323 22.4417 16.5583 22.5246 16.6819 22.5937C17.2412 22.9046 17.4884 23.5126 17.3388 24.1345C17.1957 24.7218 16.6754 25.1363 16.0966 25.1294C15.5113 25.1225 15.0235 24.7079 14.8804 24.0999C14.7373 23.4919 15.0105 22.8908 15.5763 22.573C15.5958 22.5523 15.6348 22.5315 15.6803 22.5039Z" fill="white"/>
<path d="M13.1503 7.62852C13.1503 7.32451 13.1503 7.04814 13.1503 6.74414C13.2414 6.73723 13.3259 6.73032 13.4105 6.73032C13.9893 6.73032 14.5616 6.73032 15.1405 6.73032C15.5372 6.73032 15.6803 6.57141 15.6803 6.14995C15.6803 5.34158 15.6803 4.52629 15.6803 3.71792C15.6803 3.57283 15.6412 3.49682 15.5177 3.42082C14.9584 3.103 14.7112 2.46736 14.8933 1.84553C15.0754 1.2237 15.6152 0.843698 16.2396 0.905881C16.8249 0.961154 17.2932 1.45862 17.3647 2.10808C17.4232 2.61936 17.1631 3.16518 16.7013 3.41391C16.5518 3.49682 16.5127 3.58664 16.5192 3.75246C16.5257 4.55393 16.5257 5.35539 16.5192 6.15686C16.5127 7.08269 15.9989 7.62852 15.1209 7.62852C14.4771 7.62852 13.8267 7.62852 13.1503 7.62852Z" fill="white"/>
<path d="M13.1503 9.41103C13.1503 9.12084 13.1503 8.83757 13.1503 8.53356C13.2219 8.52665 13.2934 8.51974 13.3585 8.51974C14.6462 8.51974 15.9404 8.51974 17.2281 8.51974C17.3257 8.51974 17.4232 8.52665 17.5143 8.5612C17.7029 8.63029 17.7939 8.7892 17.7809 9.00339C17.7679 9.20375 17.6639 9.34194 17.4818 9.39721C17.4102 9.41794 17.3387 9.42485 17.2672 9.42485C15.9469 9.42485 14.6202 9.42485 13.2999 9.42485C13.2609 9.42485 13.2089 9.41103 13.1503 9.41103Z" fill="white"/>
<path d="M13.1503 17.4946C13.1503 17.1906 13.1503 16.9143 13.1503 16.6241C13.2154 16.6172 13.2804 16.6034 13.3455 16.6034C14.6527 16.6034 15.9599 16.6034 17.2737 16.6034C17.3647 16.6034 17.4818 16.5895 17.5338 16.6448C17.6379 16.7554 17.7744 16.9074 17.7809 17.0386C17.7809 17.1768 17.6509 17.3288 17.5533 17.4463C17.5078 17.5015 17.3842 17.5015 17.2997 17.5015C15.9664 17.5015 14.6332 17.5015 13.2999 17.5015C13.2479 17.5015 13.2089 17.4946 13.1503 17.4946Z" fill="white"/>
<path d="M34.584 23V5.12H38.304V19.76H45.864V23H34.584Z" fill="white"/>
<path d="M80.9873 23.288C79.5473 23.288 78.2913 22.952 77.2193 22.28C76.1633 21.592 75.4432 20.672 75.0592 19.52L77.6992 18.272C78.0352 18.976 78.4913 19.528 79.0673 19.928C79.6433 20.328 80.2833 20.528 80.9873 20.528C81.4993 20.528 81.8913 20.424 82.1633 20.216C82.4353 20.008 82.5713 19.72 82.5713 19.352C82.5713 19.16 82.5233 19 82.4273 18.872C82.3313 18.728 82.1872 18.6 81.9952 18.488C81.8032 18.376 81.5633 18.28 81.2753 18.2L79.0433 17.576C77.9713 17.272 77.1473 16.784 76.5713 16.112C75.9953 15.424 75.7073 14.616 75.7073 13.688C75.7073 12.872 75.9153 12.16 76.3313 11.552C76.7473 10.944 77.3313 10.472 78.0833 10.136C78.8353 9.784 79.6992 9.608 80.6752 9.608C81.9552 9.608 83.0752 9.912 84.0352 10.52C85.0112 11.112 85.6993 11.952 86.0993 13.04L83.4352 14.288C83.2432 13.744 82.8912 13.312 82.3792 12.992C81.8832 12.656 81.3152 12.488 80.6752 12.488C80.2112 12.488 79.8433 12.584 79.5713 12.776C79.3153 12.968 79.1872 13.232 79.1872 13.568C79.1872 13.744 79.2353 13.904 79.3313 14.048C79.4273 14.192 79.5792 14.32 79.7872 14.432C80.0112 14.544 80.2832 14.648 80.6032 14.744L82.6913 15.368C83.7793 15.688 84.6112 16.176 85.1872 16.832C85.7632 17.472 86.0513 18.264 86.0513 19.208C86.0513 20.024 85.8353 20.736 85.4033 21.344C84.9873 21.952 84.4033 22.432 83.6513 22.784C82.8993 23.12 82.0113 23.288 80.9873 23.288Z" fill="white"/>
<path d="M116.826 23V5.12H123.69C124.922 5.12 126.01 5.336 126.954 5.768C127.914 6.2 128.666 6.84 129.21 7.688C129.754 8.536 130.026 9.584 130.026 10.832C130.026 12.048 129.746 13.08 129.186 13.928C128.642 14.776 127.89 15.424 126.93 15.872C125.986 16.304 124.906 16.52 123.69 16.52H120.546V23H116.826ZM120.546 13.28H123.714C124.242 13.28 124.698 13.176 125.082 12.968C125.466 12.76 125.762 12.472 125.97 12.104C126.194 11.736 126.306 11.312 126.306 10.832C126.306 10.336 126.194 9.904 125.97 9.536C125.762 9.168 125.466 8.88 125.082 8.672C124.698 8.464 124.242 8.36 123.714 8.36H120.546V13.28Z" fill="white"/>
<path d="M147.91 23.288C146.614 23.288 145.43 22.992 144.358 22.4C143.302 21.808 142.454 21 141.814 19.976C141.19 18.936 140.878 17.76 140.878 16.448C140.878 15.12 141.19 13.944 141.814 12.92C142.454 11.896 143.302 11.088 144.358 10.496C145.43 9.904 146.614 9.608 147.91 9.608C149.206 9.608 150.382 9.904 151.438 10.496C152.494 11.088 153.334 11.896 153.958 12.92C154.598 13.944 154.918 15.12 154.918 16.448C154.918 17.76 154.598 18.936 153.958 19.976C153.334 21 152.494 21.808 151.438 22.4C150.382 22.992 149.206 23.288 147.91 23.288ZM147.91 20.048C148.566 20.048 149.134 19.896 149.614 19.592C150.11 19.288 150.494 18.864 150.766 18.32C151.054 17.776 151.198 17.152 151.198 16.448C151.198 15.744 151.054 15.128 150.766 14.6C150.494 14.056 150.11 13.632 149.614 13.328C149.134 13.008 148.566 12.848 147.91 12.848C147.254 12.848 146.678 13.008 146.182 13.328C145.686 13.632 145.294 14.056 145.006 14.6C144.734 15.128 144.598 15.744 144.598 16.448C144.598 17.152 144.734 17.776 145.006 18.32C145.294 18.864 145.686 19.288 146.182 19.592C146.678 19.896 147.254 20.048 147.91 20.048Z" fill="white"/>
<path fill-rule="evenodd" clip-rule="evenodd" d="M110.611 21.7115C110.595 21.7286 110.578 21.7457 110.562 21.7625C110.562 21.7625 110.562 21.7625 110.562 21.3253C110.562 20.888 110.562 20.888 110.562 20.888V21.2422C110.322 21.6022 110.882 21.4265 110.611 21.7115Z" fill="white"/>
<path d="M104.178 22.832C104.866 23.136 105.682 23.288 106.626 23.288C107.33 23.288 107.97 23.192 108.546 23C109.122 22.824 109.642 22.552 110.106 22.184C110.263 22.0544 110.415 21.914 110.562 21.7625C110.562 21.7625 110.562 21.7625 110.562 21.3253C110.562 20.888 110.562 20.888 110.562 20.888V21.2422C110.322 21.6022 110.882 21.4265 110.611 21.7115C110.595 21.7286 110.578 21.7457 110.562 21.7625V23H113.922V14.36C113.922 13.416 113.682 12.592 113.202 11.888C112.738 11.168 112.082 10.608 111.234 10.208C110.386 9.808 109.41 9.608 108.306 9.608C107.378 9.608 106.522 9.752 105.738 10.04C104.954 10.328 104.282 10.736 103.722 11.264C103.162 11.792 102.754 12.424 102.498 13.16L105.378 14.528C105.602 13.952 105.954 13.488 106.434 13.136C106.93 12.784 107.498 12.608 108.138 12.608C108.81 12.608 109.338 12.776 109.722 13.112C110.122 13.448 110.322 13.864 110.322 14.36V14.7101V15.3925V17.1267V17.3566V17.768C110.322 18.296 110.194 18.784 109.938 19.232C109.698 19.664 109.354 20.008 108.906 20.264C108.458 20.52 107.938 20.648 107.346 20.648C106.898 20.648 106.522 20.536 106.218 20.312C105.914 20.088 105.762 19.776 105.762 19.376C105.762 18.944 105.898 18.616 106.17 18.392C106.442 18.152 106.834 17.984 107.346 17.888L110.322 17.3566V14.7101L106.698 15.296C105.658 15.456 104.786 15.728 104.082 16.112C103.394 16.496 102.882 16.976 102.546 17.552C102.21 18.112 102.042 18.76 102.042 19.496C102.042 20.28 102.226 20.96 102.594 21.536C102.962 22.096 103.49 22.528 104.178 22.832Z" fill="white"/>
<path d="M110.322 17.1267V15.3925V14.7101V17.3566V17.1267Z" fill="white"/>
<path fill-rule="evenodd" clip-rule="evenodd" d="M88.2028 4.832V23H91.8028V15.344C91.8028 14.832 91.8988 14.392 92.0908 14.024C92.2988 13.656 92.5868 13.368 92.9548 13.16C93.3228 12.952 93.7388 12.848 94.2028 12.848C94.6828 12.848 95.0988 12.952 95.4508 13.16C95.8188 13.368 96.0988 13.656 96.2908 14.024C96.4988 14.392 96.6028 14.832 96.6028 15.344V23H100.203V14.576C100.203 13.584 99.9948 12.72 99.5788 11.984C99.1628 11.232 98.5788 10.648 97.8268 10.232C97.0908 9.816 96.2268 9.608 95.2348 9.608C94.3228 9.608 93.5228 9.8 92.8348 10.184C92.4211 10.4106 92.0771 10.7512 91.8028 11.1354V4.832H88.2028ZM91.8028 11.1354C91.8152 11.1035 91.8028 11.1094 91.8028 11.1354C91.9168 10.8414 91.6371 11.3709 91.8028 11.1354Z" fill="white"/>
<path d="M91.8028 11.1354C91.9168 10.8414 91.6371 11.3709 91.8028 11.1354Z" fill="white"/>
<path fill-rule="evenodd" clip-rule="evenodd" d="M60.8265 9.896L65.9865 23H69.1065L74.2665 9.896H70.3785L67.5465 17.7458L64.7145 9.896H60.8265Z" fill="white"/>
<path fill-rule="evenodd" clip-rule="evenodd" d="M50.133 22.376C51.157 22.984 52.365 23.288 53.757 23.288C54.653 23.288 55.477 23.16 56.229 22.904C56.981 22.632 57.629 22.256 58.173 21.776C58.733 21.296 59.141 20.736 59.397 20.096L56.517 18.728C56.261 19.176 55.901 19.528 55.437 19.784C54.989 20.04 54.445 20.168 53.805 20.168C53.101 20.168 52.501 20.016 52.005 19.712C51.509 19.392 51.141 18.952 50.901 18.392C50.7773 18.1034 50.694 17.7914 50.651 17.456H59.829C59.893 17.28 59.933 17.072 59.949 16.832C59.981 16.576 59.997 16.32 59.997 16.064C59.997 15.152 59.853 14.312 59.565 13.544C59.277 12.76 58.853 12.072 58.293 11.48C57.749 10.888 57.077 10.432 56.277 10.112C55.477 9.776 54.557 9.608 53.517 9.608C52.269 9.608 51.149 9.904 50.157 10.496C49.165 11.088 48.373 11.896 47.781 12.92C47.205 13.944 46.917 15.112 46.917 16.424C46.917 17.688 47.197 18.84 47.757 19.88C48.317 20.92 49.109 21.752 50.133 22.376ZM50.7447 14.816C50.7861 14.6299 50.8382 14.4539 50.901 14.288C51.125 13.696 51.461 13.248 51.909 12.944C52.357 12.64 52.893 12.488 53.517 12.488C54.157 12.488 54.693 12.648 55.125 12.968C55.573 13.272 55.885 13.696 56.061 14.24C56.1218 14.4224 56.1626 14.6144 56.1833 14.816H50.7447ZM57.789 14.816H56.1833C56.185 14.8332 56.1867 14.8504 56.1881 14.8677C56.2194 15.2352 56.185 15.634 56.085 16.064L57.789 14.816Z" fill="white"/>
<path d="M56.085 16.064L57.789 14.816H56.1833C56.185 14.8332 56.1867 14.8504 56.1881 14.8677C56.2194 15.2352 56.185 15.634 56.085 16.064Z" fill="white"/>
<path fill-rule="evenodd" clip-rule="evenodd" d="M135.268 12.584L135.508 13.04V11.8493C135.5 11.8697 135.492 11.8904 135.484 11.9112C135.403 12.1182 135.331 12.3425 135.268 12.584Z" fill="white"/>
<path d="M132.148 9.896V23H135.748V15.944C135.748 14.968 136.02 14.216 136.564 13.688C137.108 13.144 137.82 12.872 138.7 12.872H139.828V9.752H139.06C138.148 9.752 137.356 9.952 136.684 10.352C136.186 10.6436 135.794 11.1426 135.508 11.8493V13.04L135.268 12.584C135.331 12.3425 135.403 12.1182 135.484 11.9112C135.492 11.8904 135.5 11.8697 135.508 11.8493V9.896H132.148Z" fill="white"/>
</svg>
